<?xml version="1.0" standalone="no"?>
<!DOCTYPE svg PUBLIC "-//W3C//DTD SVG 20010904//EN"
 "http://www.w3.org/TR/2001/REC-SVG-20010904/DTD/svg10.dtd">
<svg version="1.0" xmlns="http://www.w3.org/2000/svg"
 width="114.000000pt" height="114.000000pt" viewBox="0 0 114.000000 114.000000"
 preserveAspectRatio="xMidYMid meet">
<metadata>
Created by potrace 1.14, written by Peter Selinger 2001-2017
</metadata>
<g transform="translate(0.000000,114.000000) scale(0.100000,-0.100000)"
fill="#000000" stroke="none">
<path d="M0 570 l0 -570 570 0 570 0 0 570 0 570 -570 0 -570 0 0 -570z m595
450 c3 -5 -6 -12 -20 -16 -29 -7 -41 -1 -30 15 8 14 42 14 50 1z m366 -27
c122 -55 125 -143 4 -143 -41 0 -63 6 -91 25 -52 35 -61 31 -25 -10 17 -20 31
-40 31 -45 0 -12 -53 -49 -90 -62 -23 -8 -43 -7 -76 2 -37 11 -49 21 -70 56
-14 24 -28 44 -31 44 -2 0 -3 -24 -1 -53 5 -91 -50 -141 -148 -135 -54 3 -54
3 -41 83 6 37 5 39 -9 20 -8 -11 -19 -36 -25 -56 -19 -61 -122 -112 -157 -77
-22 22 -14 81 17 130 65 103 220 191 411 233 93 21 242 15 301 -12z m-274
-295 c13 -17 173 -540 173 -566 0 -24 -24 -36 -38 -19 -16 19 -183 570 -178
584 7 17 31 17 43 1z m-344 -282 c99 -76 184 -139 191 -142 7 -3 42 6 78 19
70 25 88 25 88 -2 0 -20 -22 -42 -63 -63 l-29 -14 46 -38 c25 -20 46 -42 46
-47 0 -25 -34 -17 -85 22 -54 41 -58 42 -123 40 -43 -1 -116 -17 -206 -43
-113 -33 -140 -38 -147 -27 -12 21 -1 27 112 63 l104 32 -31 17 c-58 30 -150
143 -200 244 -46 92 -47 96 -29 109 17 12 22 11 44 -9 14 -13 106 -85 204
-161z"/>
<path d="M190 475 c0 -13 56 -92 93 -132 49 -53 127 -95 168 -91 27 3 18 12
-116 115 -80 62 -145 110 -145 108z"/>
</g>
</svg>
